<mxfile host="app.diagrams.net" modified="2024-02-07T22:32:08.934Z" agent="Mozilla/5.0 (Macintosh; Intel Mac OS X 10_15_7) AppleWebKit/537.36 (KHTML, like Gecko) Chrome/121.0.0.0 Safari/537.36 Edg/121.0.0.0" etag="Se_k1Rg4xDW5W6Ode6Yk" version="23.1.1" type="google" pages="7">
  <diagram name="Home Page" id="2cc2dc42-3aac-f2a9-1cec-7a8b7cbee084">
    <mxGraphModel dx="903" dy="1411" grid="1" gridSize="10" guides="1" tooltips="1" connect="1" arrows="1" fold="1" page="1" pageScale="1" pageWidth="1100" pageHeight="850" background="none" math="0" shadow="0">
      <root>
        <mxCell id="0" />
        <mxCell id="1" parent="0" />
        <mxCell id="7026571954dc6520-1" value="" style="strokeWidth=1;shadow=0;dashed=0;align=center;html=1;shape=mxgraph.mockup.containers.browserWindow;rSize=0;strokeColor=#666666;mainText=,;recursiveResize=0;rounded=0;labelBackgroundColor=none;fontFamily=Verdana;fontSize=12" parent="1" vertex="1">
          <mxGeometry y="-60" width="1050" height="820" as="geometry" />
        </mxCell>
        <mxCell id="7026571954dc6520-2" value="Page 1" style="strokeWidth=1;shadow=0;dashed=0;align=center;html=1;shape=mxgraph.mockup.containers.anchor;fontSize=17;fontColor=#666666;align=left;" parent="7026571954dc6520-1" vertex="1">
          <mxGeometry x="60" y="12" width="110" height="26" as="geometry" />
        </mxCell>
        <mxCell id="7026571954dc6520-3" value="https://www.default.com" style="strokeWidth=1;shadow=0;dashed=0;align=center;html=1;shape=mxgraph.mockup.containers.anchor;rSize=0;fontSize=17;fontColor=#666666;align=left;" parent="7026571954dc6520-1" vertex="1">
          <mxGeometry x="130" y="60" width="250" height="26" as="geometry" />
        </mxCell>
        <mxCell id="7026571954dc6520-4" value="Employee Vacation Tracker" style="text;html=1;points=[];align=left;verticalAlign=top;spacingTop=-4;fontSize=30;fontFamily=Verdana" parent="7026571954dc6520-1" vertex="1">
          <mxGeometry x="30" y="140" width="340" height="50" as="geometry" />
        </mxCell>
        <mxCell id="7026571954dc6520-6" value="Login" style="text;html=1;points=[];align=left;verticalAlign=top;spacingTop=-4;fontSize=15;fontFamily=Verdana" parent="7026571954dc6520-1" vertex="1">
          <mxGeometry x="540" y="140" width="170" height="30" as="geometry" />
        </mxCell>
        <mxCell id="7026571954dc6520-7" value="Some default text to fill some space, and&amp;nbsp;&lt;span&gt;something more so there is more text&lt;/span&gt;" style="text;html=1;points=[];align=left;verticalAlign=top;spacingTop=-4;fontSize=12;fontFamily=Verdana;whiteSpace=wrap;" parent="7026571954dc6520-1" vertex="1">
          <mxGeometry x="540" y="170" width="240" height="40" as="geometry" />
        </mxCell>
        <mxCell id="7026571954dc6520-10" value="Sign Up" style="text;html=1;points=[];align=left;verticalAlign=top;spacingTop=-4;fontSize=15;fontFamily=Verdana" parent="7026571954dc6520-1" vertex="1">
          <mxGeometry x="800" y="140" width="170" height="30" as="geometry" />
        </mxCell>
        <mxCell id="7026571954dc6520-11" value="Some default text to fill some space, and&amp;nbsp;&lt;span&gt;something more so there is more text&lt;/span&gt;" style="text;html=1;points=[];align=left;verticalAlign=top;spacingTop=-4;fontSize=12;fontFamily=Verdana;whiteSpace=wrap;" parent="7026571954dc6520-1" vertex="1">
          <mxGeometry x="800" y="170" width="240" height="40" as="geometry" />
        </mxCell>
        <mxCell id="7026571954dc6520-15" value="" style="verticalLabelPosition=bottom;shadow=0;dashed=0;align=center;html=1;verticalAlign=top;strokeWidth=1;shape=mxgraph.mockup.markup.line;strokeColor=#999999;rounded=0;labelBackgroundColor=none;fillColor=#ffffff;fontFamily=Verdana;fontSize=12;fontColor=#000000;" parent="7026571954dc6520-1" vertex="1">
          <mxGeometry y="310" width="1050" height="20" as="geometry" />
        </mxCell>
        <mxCell id="7026571954dc6520-16" value="Welcome to your Vacation Tracker" style="text;html=1;points=[];align=left;verticalAlign=top;spacingTop=-4;fontSize=15;fontFamily=Verdana" parent="7026571954dc6520-1" vertex="1">
          <mxGeometry x="20" y="330" width="300" height="30" as="geometry" />
        </mxCell>
        <mxCell id="7026571954dc6520-18" value="Click here to login" style="strokeWidth=1;shadow=0;dashed=0;align=center;html=1;shape=mxgraph.mockup.buttons.button;strokeColor=#666666;mainText=;buttonStyle=round;fontSize=17;fontStyle=0;fillColor=none;whiteSpace=wrap;rounded=0;labelBackgroundColor=none;" parent="7026571954dc6520-1" vertex="1">
          <mxGeometry x="530" y="270" width="190" height="30" as="geometry" />
        </mxCell>
        <mxCell id="7026571954dc6520-19" value="Click here to sign up" style="strokeWidth=1;shadow=0;dashed=0;align=center;html=1;shape=mxgraph.mockup.buttons.button;strokeColor=#666666;mainText=;buttonStyle=round;fontSize=17;fontStyle=0;fillColor=none;whiteSpace=wrap;rounded=0;labelBackgroundColor=none;" parent="7026571954dc6520-1" vertex="1">
          <mxGeometry x="810" y="270" width="190" height="30" as="geometry" />
        </mxCell>
        <mxCell id="7026571954dc6520-20" value="&lt;font style=&quot;font-size: 16px;&quot;&gt;Welcoming Website Message&lt;/font&gt;" style="text;html=1;points=[];align=left;verticalAlign=top;spacingTop=-4;fontSize=12;fontFamily=Verdana;whiteSpace=wrap;" parent="7026571954dc6520-1" vertex="1">
          <mxGeometry x="10" y="372.5" width="310" height="75" as="geometry" />
        </mxCell>
        <mxCell id="7026571954dc6520-22" value="" style="verticalLabelPosition=bottom;shadow=0;dashed=0;align=center;html=1;verticalAlign=top;strokeWidth=1;shape=mxgraph.mockup.graphics.simpleIcon;strokeColor=#999999;fillColor=#ffffff;rounded=0;labelBackgroundColor=none;fontFamily=Verdana;fontSize=12;fontColor=#000000;" parent="7026571954dc6520-1" vertex="1">
          <mxGeometry x="30" y="447.5" width="200" height="200" as="geometry" />
        </mxCell>
      </root>
    </mxGraphModel>
  </diagram>
  <diagram id="iOa4P1onoX0DuS9HIbzp" name="Login Page">
    <mxGraphModel dx="903" dy="561" grid="1" gridSize="10" guides="1" tooltips="1" connect="1" arrows="1" fold="1" page="1" pageScale="1" pageWidth="850" pageHeight="1100" math="0" shadow="0">
      <root>
        <mxCell id="0" />
        <mxCell id="1" parent="0" />
        <mxCell id="txPjbdsSIhJnOO-hSXGf-1" value="" style="whiteSpace=wrap;html=1;aspect=fixed;" parent="1" vertex="1">
          <mxGeometry y="10" width="780" height="780" as="geometry" />
        </mxCell>
        <mxCell id="txPjbdsSIhJnOO-hSXGf-2" value="&lt;font style=&quot;font-size: 16px;&quot;&gt;&lt;b&gt;Website Photo&amp;nbsp;&lt;/b&gt;&lt;/font&gt;" style="rounded=0;whiteSpace=wrap;html=1;" parent="1" vertex="1">
          <mxGeometry x="240" y="20" width="420" height="60" as="geometry" />
        </mxCell>
        <mxCell id="txPjbdsSIhJnOO-hSXGf-3" value="" style="whiteSpace=wrap;html=1;aspect=fixed;" parent="1" vertex="1">
          <mxGeometry x="240" y="90" width="430" height="430" as="geometry" />
        </mxCell>
        <mxCell id="txPjbdsSIhJnOO-hSXGf-4" value="" style="shape=image;verticalLabelPosition=bottom;labelBackgroundColor=default;verticalAlign=top;aspect=fixed;imageAspect=0;image=data:image/png,iVBORw0KGgoAAAANSUhEUgAAAT4AAAFACAYAAAAlEBCBAAAAAXNSR0IArs4c6QAAAARnQU1BAACxjwv8YQUAAAAJcEhZcwAADsMAAA7DAcdvqGQAAABhaVRYdFNuaXBNZXRhZGF0YQAAAAAAeyJjbGlwUG9pbnRzIjpbeyJ4IjowLCJ5IjowfSx7IngiOjMxOCwieSI6MH0seyJ4IjozMTgsInkiOjMyMH0seyJ4IjowLCJ5IjozMjB9XX1RxnGPAAA/BklEQVR4Xu2dB5wdV33vf3d776vVSqu2qqtiudvYcpNlbExzeCQh4fF4vAcfeKEZQgIxEEwLaYQAoSXAg7wYDDExGGzjXiTZsmVblmT1vlpt773de9//d2bO3dmru81e2d57/t/V0akzc+6d//zmf87MnQlVV1dHoSiK4hApfqwoiuIMKnyKojiHCp+iKM4RWrt27bg5vgN/80U/pSiKklzU3PYFE6vHpyiKc6jwKYriHCp8iqI4xzjhi0b1lj5FUZIXq3Ex4VPRUxTFBah1OtRVFMU5jPCpt6coikuox6coinOo8CmK4hwpOsxVFMU1xnl8KoKKoiQzVuN0qKsoinOo8CmK4hwqfIqiOIcKn6IozqHCpyiKc6jwKYriHCp8iqI4hwqfoijOocKnKIpzqPApiuIcKnyKojiHCp+iKM6hwqcoinOo8CmK4hwqfIqiOIcKn6IozqHCpyiKc6jwKYriHCp8iqI4hwqfoijOocKnKIpzqPApiuIcKnyKojiHCp+iKM6hwqcoinOo8CmK4hwqfIqiOIcKn6IozqHCpyiKc6jwKYriHCp8iqI4hwqfoijOocKnKIpzqPApiuIcKnyKojiHCp+iKM6hwqcoinOo8CmK4hyhmpqaqJ9GNBrFob/9sp9T5jqfWrkSGwuK8eVD+3Cotwch/zy3NDcbX1qz3pR9RepCSMWq/Bx8YEk11hcUYCQSwTMdHfjFmdM42tuHm+ZV4t2LFptlgwxLu7/avxvVuXn4s2UrZT0eA+FRHOnrxr1NjdjX3R3brqUgPRX/ct6FUh7CrS+9gLahUb9mjPz0FPzRgkW4pqwMlVnZ6B4Zxc7Odvyqvg6HzWdJ9VsCabLh68rL8aaK+Vidly/5EE709+PR1mbc03AGg2HgLZUVZn1H+vrw5YMHsCY/F59ZuQZb21rxw1MnxvVxs6zrvYuX4Gd1tXigqdkvVZKB1Z/5PEJiHyp8Scz9b9iEG+fNx7XbH8cTrS1GaMjFxUV49uot2CYH/VXbH0WVCMvhLTchIyXFiB5FIE10YGd7hyz7pIjacvzT+o0YjYYRiVp5AwYjYVz0xIO4tKgUd1x0OcLRCEakDbeTluJt7YantuLRliZJjwnVvMwMNN70NpNe9vB9ONXXb9KWBdkZeO6aLdIuU7YX9bYZiiIjlIZ+EdUtTz2Op9vbzDqlFt/deAE+JKIdkWaj0p6kSq10Afc0NuAdz+zAbavX4Csi9k+1t2LT1sdFKMvw0BXXSKsobt6xFb8XkbZ9/ODSanxv44X483278Y2jR0yZkhxY4dOhroKPVK9AVkoafnDyOJY/9HusffQB3Lp3Nz6ydxeGRNwsvxYRWfHw/bGw7tEHcbJvwK8Fft/chKUP3Y8Njz6EH586SenB/168zK+dHiERuJ9eeCnKRfQeEbG+bvsTWPPIA3jDE4/hG8cOIys1Fb+5bJPxMil6n1yxEu8X0esJh/HB3S/g/EcfxrpHHsKbd2zDHWdq8fWjh/w1T0QI//eCS7FSPMWo/CluoMKnoCwjQw7/EHplONknHtVxGQ7+y/EjeL6zw5Rb+kZHUTfQPy6EA1pBD7BpcFiGk724U4bJEakrlnXPBA5Xryubh9EI8KEXnxevtA0nZdi6q6sLn3xpl3hmDdLfTLxr4SKUyrq/sHo9UuUM/sVD+/Gjkydk+N5r+v9gczP+x3M7zfKTMRiOoCIzC7+4+A0z7qsyd1HhU/CkDHnJJ1eswvPXbsE3N5yHhdnZInnjzWN9QT7+ctVqEz6+fIWUiDrFIzqZkhIVT2+ppCPY09PpV0yPm0T4UuTvybZmEbD+s/rwoAybqbVvnV+JZTm54qmmiliH8W0R6mBbCjbz8cvH86uGOmyX4e8FhcX41oaNfqmS7KjwKfiP06fwVwf24Kh4ahSTj1Wvxt7NN+K9ixeJcIxxUWEp/rbmPBNuF09LxqV+jceW8nl48drrUffGt+CdC6vwkAx9v33sqKxjbH5vKsrSPa+rdmBsCG3hejqHRyQVRXF6phn2ch6vRzxVzk1a/nrNGtxx0aUm/OP6DX5pYujF/ulzO8Sr7MUfLajCh6urzXBbSW5U+JKYCLz5uQyzl4MHM9Oc0ZI4Kv9HU/B3hw+j5pEHcOETD2FnZxsK0tJx26q1KEpP9xYRfn7mFArv+7UJVQ/91iwbZGA0jM6RYTMEbRkawntf2IkzCQRsMs4MDpp4XX6BiYNE5fPMz840qfrBAfSIaHGoze2lp46Z8hXFJbhlQSX+uKpKPMOFfukEiHifHhjEu59/xmS/KV7fZhHwSCJvVkkaVPiSmHbxhAhvR/GELmLC5vIKk2oZ9kSGZZ6XE8Xuzi5cve0xNIoAZcowMj1lzERGIlHxrkZM6B2hqI43n+0dbdi8fSvuqKs1t6Dcc9kVyElN82unx39yblD+Li4qwWXFxaZvhHGquHfvqKQXmoJf1p/Gkb4eNA8NiLCH8Dc19Ow8IX77Mztw/fYnJTXeI52YEJ5qb8df7N9j1nCLiGVwblNJPlT4kpi768+YW0w+vnwVPlK9EhcWFeP9S5bhi2vWygEexe8aG4zH8/frNmDf5jfihnkVqMnPFy9pAcoy0tEkotIrXpWlWIah5xcWmXCBhI0FRSKO4wWCMvVX+18yy15SXIoPLa0225qIDeLZXST9YuB6d3V14g4ZelOIOVS9pXKBlBea+/Qev/JaXCKCyIsXv26sR794mO/btdN4fh9etgJ/sWqV8RQXZWebIbsn9hNvOwiF7nsnjpvvJEW+ExW+5EaFL4m5u6EOnzu41zhC39xwPrZt2mzuT0uTg/ofjx7Gf4hnliLDXF7IWJNXiN9dvglPX70ZP+M9ebL8J1560dw3Z7mpogLbr9ocC49uusYsOw7ZVvPgMD6290UZCYfMTcKF6RN7fb+85DJsu+paCdfhgSuuQpWs76N7d+G+pkYsy83HXZdeia1XX4vfX341NpXMw/6eLmx+6nE0yhCant8jLU14/4s7jUz9Tc16bL/6Gjx9zXX48QUXS1kUL3VP/+IKryT/0c6nsbOj3S9RkhW9gTnJCYUiuLZsHm6Q4W1pZjo6hkfwWGszHm5uFW/Q3/XS5kbx9q4rrUBhRhrahkbwszOnsL+711RfVVqGt1ZyuDye0UhEBPSQeFg5ePeiJdgr3tq/n+b9e6nISvXuDyzPyMQOEZK768W79MlLS8XnV6+Rvo0/7w6Gw/jnY4fRPjwqkhXGFunTZul7SUaGmT/cJSJ2T0MDuvwhvIXD4PlZWXjHgoUi4AXGC20bHsb2tlZzFXg0EhKPsVSG/PNxqn8A3xXPrjo3Gx9cugLPdLTiV+IZB6/+ri3Ix3uqFuPepnpsa+vwS5VkQH+5oSiKc+gvNxRFcRYVPkVRnEOFT1EU51DhUxTFOVT4FEVxDhU+Zdbh7SXRUHR2g/8LDkWZDfR2FmVW4dOPv3f++biwsNQvmR2ahvrxzmefQX947PmAijJT9D4+5ZyRlhKVMLPf6E5FJBLGsDp9yitE7+NTzhn8pcTgaHhWg4qeMpuo8CmK4hwqfIqiOIcKn6IozqHCpyiKc6jwKYriHCp8iqI4hwqfoijOocKnKIpzqPApiuIcKnyKojiHCp+iKM6hwqcoinOo8CmK4hwqfIqiOIcKn6IozqHCpyiKc6jwKYriHCp804CvurF/rzVeHzRomDi8Huz09Y6+c2MKUkJASXoa0lJS0DI8aB6rzr/XghQx6ALpUHrotdm+MjcYlOO4Rx/VnxB92VBColiRl4tbKhfiqtIyrM3LR1V2DjL9F+eEo2E0Dw/hUG8Pdna0457GBmxvazd1s08US9LScH1+AS7Jzcea3DxUZmYhJz0DKSLCZuepACo+PHZtHA6H0T8yhFNDAzjQ24tnxF4f7utBa1g9QRW+AGIqKM3MwG0ra/CRZSuRkZLq10zNk+3N+LPdL+BAT498f69ciNiXotRUfLi4DO+ZX4VCEbzMzExkZGQgVcoZVPSURFjxo/AxPTo6iuHhYQwMDKC1rxvfbqjDL7o70RuJypjFzVkuFT4fvqj6DxdW4R/WbcRi8e7kK/FrpgfnUzpHh/GTUyfw6f0vyVDYr3gZsC9vES/z0wsWY0VJGfLy8pCRno408fxU7JSZwuM5EokYIRwcHERvXy92t7bgS/W12DE44KT46eslhZBIzV+uXIU7L778ZYke4TJFaRm4dfkq/PziyzBPPMeXA/vy4ZJyfHv5GqyXoXZJcTFyc3KMp2eHtooyE2gzHCGky8mTJ9HSklJcunARvrd8NW6SPOeMXcVZ4aOn9uW1a/HVmvXyJYiwvAzRs3BZnkP+W+Ui/OiCi/zS6UNP75NilH++dBlKS8uQn59vjFXFTpkNjIcjJ09OmRQWFGDZvAo5wXri5ypOCh+F5s3z5+Pj1auQFprdN/6/qWIhvn/+BUjn5eBpwL68SYa3H1y8FGVFpcjNzY3N4ynKbMNpk9ycXJQXl+ELi5ZhTUaacQJcw0nhK83IxE8uuAS5qel+yezBL/S9VUtxVVmpEbWpKJYz8e0LFqOssATZ2dnmzKwo5xIjfnKCrS4txzcWLkGegzbn3CemGH1hTQ1K0zP9ksRE/L/HW5tx+8G9+O7JI2gfGZzWuTEjNQX/tG4jUqb02iL4dPl8LJZhbk5OjjFIRXk1sOK3VsRvc27etE7SyYRzwpclovT2+Qs4MTcp/eFR/PFzO/DB3c9hX083/qvhDFY/8nv8RuKpxI8zfusLCvGuhYuk7cStS2RIe11JmTFAzukpyqsJL5wV5OXjI+WVyHBsasU54XuriN6i7DwjTpPx2QMvoXd0BLuvvQF3XnIF7r98Ex58wzV4365nUTfQ77eanPcsWipe38TCt0m8vKr8AmTK0FtRXm04j8wLHquKCnFFVq5f6gbOCd8nl6+S/yf32dpHhvBvJ0/gc6tqZNiahlQRyfRQmnhxBbiytBQ/qj3ut5wYXileLWfTbPHqJuJdRWXIysqa0cUM3o/V3z8mvLxPq7W11dyrpSgzgTbHIW9WVjauyc+Xo8IdG3JK+PLSUnB5cdmU3l7XyIgZopZlZMkXNNY2VZKLsnPF4xvwSyanKjsbORPM2+WIJ3hBbgEy/J+gTZeuri60tLT4OZi78w8cOGBiRZkp5jYXscGV2TnjbD3ZcUr4FmRn+anJqZQzYJ4I1oHebpG/sUnfIfGudnV24JLiYr9kcvgwgXV5BX5uPJVp6WZej97ebMGfJzU0NKC7W/odFemW0NbWhqamJiOMzPf09JifMDU3N5t4RESeQsp2dpne3l6zHtbbPD3KxsZGsw2ug+ukt0kYcx0MbK/MHazXV5aRKWm/0AGcEr58EZvpkCFnwR9svBif2b8Xv2tqRN1gP/b1dOFzB14yF0XeU7XEbzk1C2Qom4gC2Yb9RcZ0h7mTQWHas2ePSXd2dpr42LFjRgQpTEeOHDFlJ0+exIkTJ8yQuaOjAwcPHowJJpfr6+tDXV2dWYZ1FEaK5OHDh0169+7dJk8x5PYodEePHjUiOTQ0ZMp02D23oP3lyrHhkhg4JXyp0xQYuvw3VsyTs2AG3v7MNix76F5sfOxBfOv4UdxavRJZ0/bSQkid4IEHs/3FU4AoYKSqqsrEFD1euaOIUbQI02vWrMHixYtNvry8HAsXLjTLsD2vMK9evRqVlZXmFhuKGNfN/KJFi8y9hmzLQJGkAFJA7Twl+0BRVeYG9qTrlBAITn3enlHv4J+KH9Yew4qH7se6/EL86pI3YPum6/DwlVfjW+vPx98dPYg379iGevECp4LzhA0TtOuJRoyg2DBdeDEkKCxW0Hh17oILLjDCtnfvXrNOilFhYaEJ1dXVph0NPdGcoi2j10fvkENZK6Rcxh4gNh1cB9MFBQVmO2vXrjV9VOYGtBPaTB+nQvwyF3BK+BoHhxCWv4l2MIXql/Wn8XkZ0t596ZX4/saL8AeVi3BpcRmuLa3A/1m2Es9evQUVIjLXP/UE2kaG/CUTExGjOiBeVCKa+cig8LAxuplAceGwksNRemgcutJ7oxjxam9JSYkRQeY5h0ivjMLEZax4TQYvnnAd3M50hqz0ACl0FGCun97fdLajvD6g8HE/t8lJzqUJCqeEr2N4FIdkaJYIil5tfx8+vOcFfPe8i3BZcakMVM8+gNNDqfiXDReiMC0NXxfvbzIahwbRPcHV1s5IFEdElCgYM/H4CL0qTkhTZDhMtcJH2tvbzbCU+ZUrVxrRYzvrhS1YsMDEhOLGByIQ1lPwuCw9SgolvUSKZ2lpaWx51tOT5HqXLVtmYg6N6R1SiIuKilT45hA88Q7zoaUyMpmpHc5lnBI+8u1jh+X/s3cwhe+x1mZsKMjH2+YvTCh6Fk4E//jCS3F3Q71ZLhEsP9zbg/4JvaYQ7upoxaCI40wvBnDerqKiwgieFRoKEIWLwkZBIxQtO4dnBY4iZuF8HufxCNua5//Jutme6+IyFDkOY1lOWM4yBiuwtj/z588361ThmxtQ6Hi1nye6bb0cmbiz35wTvp+cPoUOf14snt81NeDW5aunvAjC2pq8QmSnpqB2oC+h+LHs7oY6hKMTD2XvE2Fs7ukxV0NneraluMQLTKKyeBItY+OpQjzB8snaKa9P6O3R9lplFPRAf4/YtTty4JzwDYYjuK/pjHkAQTyXFZfgYvGgpgMP7/+xaBmGIom9tZP9/fhJba20m/gKcJssu62jBX0innoDsvJqwhMtp1l6RPC+1dyAEXdGuQbnhI9nta8eOoS+uOElf2L2FytqsCBz+r9ZvLV6FVblFso6x3s5w9FR/NX+PVNeRY5GU/CNlmY0dXaYOTW9/015taCt8WLY4fZ23CejDpe8PeKc8JGDvd346J5dGI3OvtDwlx7b2lrNG9jiBTERR0eG8fdnTqOju9PMtcz0Kq+izBSKHk+0rZ3tuK3uFFrD7o02nBQ++n2/qDuNn54+KTI1ez4+5/V2ijH9wbNPY0iG1N6AeCpC+JWI3l1natHRpeKnnFuMpzfQj/aOdvxD3Uk8Mzi9350nG04KHz2xQRGX9+96Dj86NfWTVqYDRa91eAi3PLMdPSP0JKc3yW/6Itr7qcYz+IUIMW894RBE5/yU2YRzerzliL+0aW1rw9eOH8UPO9rE+igB07PVZCK1vLz8dj9taNuy2U8lNxQc7vRHWprQIYJ1eUkZMmfwPt0gvFDy87pavPWZbWgZmrlg2b5s7etBx2Af1qSkgc90ib9KqldMlZnC0QO9PI4keJ/l8dYm3HbqGH7W3SE2N3sPyJgrlD38mHdc6QvFPW/t4uIifHPDBTi/oBA503wXBy9i8Ortlw7twx2nTxvxeqWwLxsy0/HZiipcKGJc7L9QnDcs89457jTes0dUCJUg9pYoxhQ8jhoYOJ/X1NuFZ9pb8fmmBjSJEM6Grc5F9IXiZxEVjy8Fq/Lz8P4l1fifi5aYG5VZTnjVl/OBfP8tH0/1qJw5vy3DhZ0dnWj3f9NK3212kL7Izlmcno4/LSrF24pKUJSdhfQMCmAKUgNvhlPxU4gVPRKOhjEyMipD2yHU9/XhPzvb8LueTpweDoO/yPUsxk27UeFLCP0t7+vgTcwbCoqwKi8PxekZYiYh9IZHxMPrw0syZOgc8X/Af87OnGN9SZetLJc+LJZQJJ4ft6p6p1ioedYemOYJum10GCeHR3BKbJa/GSeuenlBVPgURXEOK3x6ClAUxTlU+BRFcQ4VPkVRnEOFT1EU51DhUxTFOVT4FEVxDhU+RVGcQ4VPURTnUOFTFMU5VPgURXEOFT5FUZxDhU9RFOdQ4VMUxTlU+BRFcQ4VPkVRnEOFT1EU59AHkU5KBDlpachKSUFKKIThSMS8JDzCJ96+yucMvq83O5SCjBCQFko1+0pRxiG2wSeF833RQ2IfQ8ZE9FHdQfQJzAnwHvUewbLcPLxv8VLcNG8+5mVmI51flPyFoyJ84VFsa2vBT2pP4Kn2drMUHWfWzya2L4vT0nFLfhGuyitAaWYWMlNTjQhz5ynKWcgxPCon6OFwGGeGBvBwdyd+1dOFXrFdF9+qFo8KXwCKDF809PbKBfhfS5biutJ5SPffZEaCombfg0H29XTjx6dO4P/VnUTr0MisiB/XnyE7ZouI7x+VlOKKolLk52Qjw7xoKA2pKSJ8gb4RFUF3iff8mWfgKyVHZXQyODyE3v5+/L69Fb/saMcz/X3gC1Bn+0Q9V1DhC5CfnoLfXbYJV5aWSo7vU5u+UUQQNqL39me34dn2zoAsvjyKU0P4/oLFuLS8HHni5eVkiceZnm7EzgqcCp0yGVYM+YpJ+5pJvqS+Szy/XzbU44stDTIMdlv4nL+4ccO8cuy97o3YVFouX4Z4UzM8E3KZchmCPvCGa3Db6tXypUb8mplzjXh2v1m+GtcuWoJy8TqLCgqRlZVlPD0rfCp6ylRYO+F7mHnSpA0VFhaiorwC761ejl8sW4EqOdm7jMOfPopNZcW48+LLsDg77xW5/lyyIC0dX16zAZ9fXSNrDpsh6/SJ4qKsTHxj6XKsrVggRlqE7Ozs2AvEFeWVQBviyZM2VVxYjCsqq3DP8jVYlTH2fmbXcFL4eIV0RV4O7rrkChSnZ/mls8NtK9eZF5JPF/ZldUYG/lXOwovL5iE/Px8ZklfBU2YbjhoyMzNRICOJxeXz8c1Fy5AmJ2laoWs4KXzZ4kn92/kXozxjdkWPZIhxfX39eViXXyDmNLVBZYnA/bWcgReVliEvN88MTRTlXMETKm0sLy8PG+dV4OuVi5Au59iZjVDmPk4K34fFu7qqtHzK4S3fQN87OoqOkWH0SBz2J42nIk+GFZ9bvUZSU7d/X2EJrhIDzM8rUNFTXhWs+BWIzb1p/gKsy6QDoMKX1KSmRPGeRUtE8ib/6AORUbx/93P4wO6d+PujB/HRvS+YK7e1g/1TmggveLxzQRU2lZT5JYnJlb78t/IKOfvmG0PU4a3yakFb47C3RMTvEzLsdQ3nhG9DQSHWS5hMYgYiI3j3c8/gDcUluOOiy/G1mvPwkwsuxceWLcdHd7+AgfCI33JiUkIp+OCyahFJzqEkZq2caVfzQobE8ffmKcq5hjbHCx6bSsuw3nh97uDU0cYLCbetXDPFABd4sq3V/ErjfYuXyRc01vqGeZVYmZeHn9ed9ksmhstdJMPY7NTEV844p/Lfi8qM4fGK23Sx92jZG1Vt/rXEu1mWt8Uqcwk75M3OzsEbxfOb7CSdbDglfBmpKXhzxYIphe9Ibw/eu3gpUuOGnpwT5M/YdnTwp2pTsygnR4Qv8VfM2byr8wuRkZ4xI2+vp6cHu3btwpEjR7B//36cOXPmNRe/jo4ONDQ0+DllLmGu9GZkoEZsdarjIplwSviqsrJ9D2zyXczbUW6prErYKi8t3fwIfDrkpaZiWU6enxvPgrRU5MvwYibeHuGd+LzlZeXKlVi7di2am5uN8Nk79Ol9WawnZoUxmGfalnPZYJowz7bB5W07lhH19OY+9PrS5JiYn5FlfgPuCk4JX9EUV005/GwfGcRfH3wJn3zpRdxqwq5x4Z+PH8LznR04PdjrLzUxlIvluYmFr4gPG5CzLQ3v5VzUsMtYb/Hw4cM4ffo09uzZY36e1NbWhqNHjxqPsLOzE+3t7Th06BDq6urQ2Nho6lhGDhw4gJaWFiNqx44dMwJ3/PhxnDhxAidPnjRp1nEbNnCd3BbXX19fb9ajzD1oR7Qh3oDvkhg4JXxpock/Loeyj7a0omFwENeWzUsY3rVwCf5w4WI8JJ7WVHB9fJpKIvjEl5dLb28vamtrcfDgQTNHSONdtWoVFi1ahBwZslihY3r+/PkoKioyyxQUFKCystKE0tJS08Z6bPQcKXjDw8NG5AYGBoxXuXz5cgzK92G9P66rpqYGra2tWLJkiQkLFiww61DmLmkzmG5JBpz6tIP+MG4q1ucX4Zb5C/H2+ZUmvM0PLGPgbSpT3QNI6PF1jQx5mTjYFzuEtPF0odhVVFQYUaI4Ec75UQj7+vpMvrq62gxFd+/ebUSK4kThopdGz7CkpARDQ0OmjuviWZ+eYG5urlmOvx6xME3xI6wnFEgOucnL8ViV1wfW9oYi7lzYIE4JX6sc6FPdoR5/CP/tkYP4k+d24BN7X/RLZkIUB3t6/PR4WkT4wmJsdk5tJvA3vLwHi4JEwaKHx6tznPPjD9IJhaqqqgqrV69GV1eXEb3FixcbseQwmGLFdVAEKWAUQg5bGXPekctTGEdGRoz3R+/RwmW5HXqJXC/Xr8xNKHw80XXIicwl6XNK+OqH+tEuHthU4mdhq11dnbh9zXo0DXsez0xoF2NqGkq8XJMIRuvggBGOmUChi78gwiEsr6zSu6NAsQ3F6IUXXjCe4MKFC9Hd3Y1nn33WzNetWLHCLMdhKz04CijXQfGkCHJ5eogvvviiWQeHxna7FD0eLKznlVzWc/mZXqRRXj/w5FYvJzr+UskVnHse39+tW4dPreC9fImHZ7+qr8PRvl58euUaEb4Idnd34md1tXhjeQW2lFeaNo+2NuNUf5+5z28ynutsx5VbH8FIJPG2Pl1Wjk+uWovi4uJXLBzWc6RAWVhGobJD0fj8VCRaZxDaC8NE9crrH3r1LW3N+OyhQ/j37o5pTeHMZZx9Ht8/Hz+CgfBEw8soavLzsKenQzy1fnSLN7YsJx+fXbUOlxSXoWt0BC3i+T3e2oTq3LGhXyIi8veYCCTf0zERd4mhdYqA8oxLAXklUHziBYj5oMjF56ci0TqDGAOapF55fcMTG+dqO3r78FB/d9KLXhDnrLZRXPpnOlqMMJ1NCGvzi3B1aTnOe+xBLH/4PqyIC+sefQDD0QguL+HTmieGDzT4+rHDssaJ33NQK4K3V7zC/sH+mHelKK8WnGbpG+jDXXKCbpjhlMtcx7mhLoevb6qYj99evsk8bzkRnAPkfAcFLh7eEpPme00TnSEpql88uA9fOnRAWkx8bmFfNufk4t/Eo5xfPi92a4qinGt4ouUtTkcb6/GHRw/iuJyEXfD4nB3q8iPf39SIH5w8ZgQuETSAVBG47JS0s0K6lLN+MiOpG+jH904e93MTw748KkPdnzfUobunxww7FOVcQweHV+07ujrx08Y6Z0QviLMTNJ8/sA97ujv83OzRONSPN+/YhpahYSNs0+EbrY3Y09xgrrxysvmVzvcpykTQ06Po0db+s+E0vtPZ5te4hZPCR0FqHx7BDU9txfOd03vgwFTQe+TP3T60+wXs6+6d9hmUfWkLR/Guk0fxdOMZcxsKxU/n/JTZhvfrmZ8zdrTjwTO1+GpTAyLR1GnbajLhrMfHnc3XQr7x6SfwrJz1+JpIzrm9HDinVz/Yjzc8+Sh+29Dol04f9qVTNv3eU0fxZN0ptLa3ore3Z1au9ioKT6I8mfLJPrStO04dxwfOnESXw+dW59+rS0+NLw//aPVy3Lp8JaqyvNtUpnMW5LIjYlQ/rj2JvztyACf7B6a13ERwfXwHx38vKsb7KiqxrLAEOXyZeLp3g3D8rSN6IUQJEjxJMk3B45VbnkB7+3pxoL0N32lqxG97u8yvNFz09PSF4nHQ2+O7Mr6weh3+pKoKJelZyErlMOBsKHbdoyPY1taCW1/aLYLHJ7XQjGbHgWZf8kXkPlJchptLSlGRm4+8zCykG/Fjj2RbKnpKAngMW9Gj4HUNDqClrx8/bm00NyhHjZ26azsqfJNQmJ6K6txc80ip9fkF5oXhGaEU89KhgzIEPSBnzFP9/agf4M/Rzu1sQb6svio9HUvE61su/SgRMc5yd4ZCmQZ90Qhaw2EcHhpAndjsaRHAoaieKIkKn6IozuHsfXyKoigqfIqiOIcKn6IozqHCpyiKc6jwKYriHCp8iqI4hwqfoijOocKnKIpzqPApiuIcKnyKojiHCp+iKM6hwqcoinOo8CmK4hwqfIqiOIcK3xyET2r2/iKIRicJ+pdcf4n2sQ2BP2VqVPjiiJmP/yTbCQP/QtL+HDzfkabrBf8vbtt+pQRufJIwtiINyRAS7WMbAu3i7WXsz1+N4rbwxYwhYCTynxemgm0iEQljy5rgV88ULsllx/XBBkV5JcTZk7VTly3LWeEzu97sfb52JYg9i07FBO1oXDNk+n0xjTRomEYIksiOxNZehq0mC84JH0WGc2NjOz3BV8A6E9hugjAJY97f5IbFWs7PmG0ZJuoL29BQ/W1HJG28TT+vQYO1BdqGKQvYy1mICEY9W4tKu+nYarLhlPCZnWvUJu4MaISHBuIbTCzN9n4whhXIG8OyQfKJME0T15lyU5egLzHD9ftiymwdYzZkLAkZamvQYIwiaB8mbcNktupLAJuZBd3ACeHj7vSExsuPIyguYYlpRGxnYi+EGEzbsbJxRmfOshMZFovEpGQFVgQnEsOxvvj9sMFsz5b5fTX5QGCZBveC3f9hpoNlftrkGdO0GAdsNR7T3A35S/q3rMW8vHGYPRyIvaSXN7mx8hjMBzwzwnfbmiIbM8kE834chNn41Zpt+oWxPpmMFwf7EUsHymLtFWcxthbEt70QDcOvG2ergbJY7KctUhZXkhQ48XpJ88GCwmGQvJ33YJ2ttmnTnh4UkJoSQm5qKjJSUk2TUVmuX7zC4bCcLY1ViMNsbMY3EcbWWkJ0ppm3BVy/rNfkraPNMrNRLzZJ/ifw7Ez8vqZJX3JSUmJ9CRLbgr+I4gA0LT8Zv9t5sh8Wr69P7NSYkWnIBWyweUbmv7E4iJTFlcx53BC+eCUweYqaxKZK/jO64ucpMlK3obgQ/3PZClxRVo6i9AxkiuCkIBXDMjzoGx3B/u4u3HHyOB5srBcx9I3GWIhN+3nGRhwljg0tTIWXtH0hjE1fbP+8Pl1YUmz6cllpOQoz0syLzdkXi12Th78uxRG8vR+/1yPyNxgZRfvwMB5pbMSPjx/Fqb4+zw65jDkn+3ZpDcjk7Qk5gLSxTZKBpBe+s0SPUHxinpTEsRBBtnh2b6lciA+vWo0ry+YhLXS2ZxXP0d4ufOfIIfy89gSaBgd9Q6LxSDA2xLxvXLY7QSsy27ax1w/GOalp+IOFVdKXNbi0pAypiQxSUaaBMS/5u/fMaXz36CE80tyEEc4B0r5pi7RPGU2YhtZ+GQegUCQLSS18Z8/rMU9RYZJpGzjJG0GW7OxtN9yMC4pLRK9mLjLdI8O4ZeujeEyMyjMkrkOCWZVvNIysAZlte8lYPyjIEkqyMrD1+ptQk18ozWfeF0WZiLAY3e/r6/CObY+b0UvMy7NiZ+3T5i2ssnY8x7HCl3RHlvH0rKgYmA8OHyXYK2EiNDfPX4jjb3snLiwufdk7Nz89HfdcfT2+uH6jDEL99XObRswkJpIc64OfNn3wRU/av3PxYux/0y2oKSjyjE9RZpEUse+bF1ThhRvfgvW0MXscxOyStmqM0w8+rArmk4CkOrrO3jXcY/HB8/IYriorx8+vvAaVWTlG9F6u8HG53LQ0fG79ebhdghUyI2qcs0sofhLMbTBe+vp58/F/L7sSFVnZr6AnijIxtCla1rrCYjx745tlhFMcsEMeE9LABKZtxieQTAaSy60wO8sXGeIL3NgOpXcleQk1+fm466prUZCWYZq+UmhQHCZ/qmY9Prpqtb8d2agRQWngb9frh02zPoJLSkpw91WbkTdLfVGUqchOScedV1yDvFSRAGOLNtBAhWA6CUka4RvbRf5Hit9pzBuhAXJSUvGvl16JeZk5fuXskSUG9dWNF2BDQYFszzeeWMztMy0NTTqK3JQU/MtFl8twWUVPeXVZlV+EO2XEk8lbpMxJOmCnBht7cBopWYa8yePxmbFhcKcEdiKFJ+Z9jeLjq9fgivJyv93sk5+Wids3nO9tN7b9sSH2WDqM22RofHFpmb+kory6bJm/AJeWyJA3Nu0ihbHAvJTHEJtNEpJH+LiTPPXz04xt4H8UnCjS5CP/6dLlZmg6EeYBn2Yn++tJgFefGJ4Z31q1GJvK5gG82dkIrlRY8fVDYVo63rWkepKeKMq5hd7e186/2LNPE/yTssnEW6bkWZwEJM3tLOZqroVp41FJTPfdzmGEI7iouATP3vxWkb+JNf/FrnZ868RRXxzPliVuaXluDj5RvcrccxePGRKEorjzxDG8e/sTUiLr4HBi7Js2fdpSOR8PbrnZ344SxBtS8Zvx4iCsi//OxrcnY/V2eKbfc2Jor1c8+FvsaGsTO5XjwgTe5yffF78yc8/f2Hc3l+/rS6rbWaxhezBtz1gSjCBKMF5XBJ/dcN6UB8D3Th3D51bV4Itr1uFLCcIXV69F/cAAft/c4C8xhhXgUDSE84tKkWVuDpUQmz+hELM/EXxM1uUq3Gfd4WEMRUf9kjGGpexYXw86Rwal1fh9xeV6wyM41t+NwciIKQvL99o9OoIRGa6NyPfLNFtaBqW8LzxqllXOhifpdy5a6tkobdMU0lYZmOHxNIZ5uNEcJ3mGukG4s2zgf/5OzBQRetPCKhZOCn8pUZ2Tj6qsHCzMyjZhe3sLKv30ouwc8fjy5YAyG0gIBXBRbi5yQuIRcv7ECJ8/jJB8VmoKbliw0G/tHu3DI6h+6H78e22tXwIjWl8/dhBLHrwPl219FFUP3otbnt2KE/09pv70QB/eufMplN73G1z6xKOofOC3+MKhPWgYGkDRfffgvxrO4PnOTpRI/Y9qT8jh6h2wn9m/Fzfv2DrlCc9VOPo5r6hkzKmzJ2nLODOf2ObnEskhfON2kqTtDjTlEoy3F8XC7Fxz1XWqA+Af1p7np8Z4qr0Vn3ppl7n7PbC1SclJTUV1bp7Xj2AQlkr5dPriCvxWt7a24FP79uATy1eh9aZbsPfaG/FYSzM+uPs547Vds+1xPNvRjuNb3oy2N92C+y+/GleWJL5I9eE9L4hX2BcTP2VyKuRknkLTDJ7MfVs1JmrTJJieoySJxxcnHsH9EkgXp6f7qcRwyNQqw6v+cBitw0PjAg9Glv/1wZf81tNjWV6+ZygMPAYZJF2akWnqlTG+fPgALi4qxp/Ld809ukw85p9eeBkebm7F7xrPoH5wAJ9euUZOYNmyWyO4rLgUW8rneQvHsSovDzc//STOyDLK1BTIsZFqUr6tMlhM0uZlzwSq5irJOdS1O89PenFEhrCTe1cnxEN4xzNP4c07tpmhUTD84c4deKC5ET84cQwNg/3+ElMRQoaZ4/P7Y4Ion3gvmXN4gvhccWqgF0tycpES+25CqMkvMLvwhAxzea19XmaWqfmO7Idrtj9uvMCRBFMO/7jufAzJierWvbswwCvryqSYY4Nfo7FRlpiMnzcFSUUSCh93Upyo+Dtu0Ex6T8xy8TAeufIaPH3V9WeFn198qYhYCn592ZWYn+UdfFPBrXaJt+htPzDkiobM462U8VxfVoEnZbjbF7bfTRQ/q6tFupw8biivQHooBS90tkt5BO9YsBBbyuZhW3ubtBp/YPKq3YKsbPz28k14TNbHdSiTM8x5aCt6MaELHkfjv+O5TpJe3LA7KSg2QMugiNAkcL4tPZSK+5vrzRkwGD53YB++f/5FuLKkTL606X1tvMBx0ByozHAZ6QS7Foqivn+6XmNy80hrI751/Ah+eOoEPru6xjz78MantuJbJw7jY+Ktfe3IAXxpzVpsKCg0w9x/PXUct+3fh4fE+97b3eV9nwngD/LPKyjGV2rWY1A9vilpHxpCmBff7FObrQiOY4Ivew6SpEPdBMiObJChbMcwb5GYnHubGsywKtju3y+8FNeVVhhxpAGE2WLcXe1n0yHeXjPFNnb9nwblpU739qBtuC9uK+7Ak0l1TjZ2dXbJsPUoflJ7Eouzs/HsNdejUjzqz+zbg4daGvGLiy/HX65ci1T5+9zqNbhT8ryN6EO7XzBD4x1XX2cuIq3MzUZeGp+WHcKKvDwT8+/Plq7E7SKcvBLv6nc9FbwAVNffiwjt1H5Fsn+SmaS4gdneO2egGPlXcU2aL2HhGX901NzA/LWLLsanN15k5Gsi/nLfi8iSg6nEXIDwWvKgsVdgaSh3nK7FNzdsxKaS8ZPrti+RaAQ7W5pwzb33YJhlNCQuHmEsnqj05Z+vuBIfW7cxtl7XCH6nXm4Mlo7lvVYTtUicYtoyfkvKeHih6FPPPo1/2vcSkJYm7lAq37vgxZyjpu2amH6S9y3O1ZuYk/Z5fAbuE7NjAjvH7Djgmy/twcAU82ufX7POXFH01sBDJmq+KJvmXNN3N16AKya4lYJw2cfqz3hzJ7JMbAhhvnH2JYTv79tnJuBdZbwUMTf2Nz7vESwJtkicCnJ2iTIGpwLuOn7cz/kk/MKS51tMQo9PvCkTJG3uRKfXRw/L8/hSIiN44Ka3YfOCKjMPNNvYvlBcq3/xH2jiUNeeNRlYzyBeKX/Vse1t78CFZeV6aCqvGd/ZvxcfeWqreHv09MTjk9GO5/ExeDe5mHTg4bjq8b0uCAifwe6UQLm/0ziP8Y+7d5l79s4VnCT+6ovPoWmg3xM79scKnwk0Iu9M++UXdpq3tynKa0HH8AC+tW934ORM25TYH+MYWJdkJ+bkED6zo3xM2oqapM3OZJkEs3NT8EDdKXx774sIy9+5oHFgAN/bv89sy9gLt2u2LWn2xeSlTuLfnDyGHx88IE6gu0Ne5bWB9s+pn8OdXZLzBc/YqKkejzmGiBxbtN85TnII31nYHejvIJNmYLkEcd+/8uLzeKG5RXbj7Hp+9f19uPHe36BjSIa4Zlu+QRnDotgxlqzpi1f2hZ07cKCrQ3qinp9y7qHN8wLdz44cxpeff05sknZq7dEYp/nn2SgTyYd80mQgbucwG9Mzf2faOQrGUkZhuvHee8yV13FD4ldAx9AgPvDEI9jf0S6b4BWxwLbNZplm8K+WmfJUNA0O4Mq778KeBDfjKsrsIqIXjWJ7Qz0+vn2rucnAOy4kYYWOZfHHVJLBw3HOM34XMcedZ4NX6hX7ef9SfcfIMG4W7+zhutpXLDgne7pxxd134n7+SmCcsHGbTEuZ7+F5eVvHOAWdI6O48be/xpP1dSp+yjmD96f+9NB+3HifjEqGh8X+AidoG6yzYNJE8jFs2dwmtby8/HY/bWjbstlPzTHM/qBg2B0maasfNm8YXzcwGsZ/HDqATvHWVhYVoSgjQ5qblU2LvtEh/HD/PrzvsYdworfPMyJeFTPCxrQfW0OyQmg6MD7uGx3Fzw4fRN/ICFYUFqJghn1RlMl4qaMVf/HUVnxl13MY4c3K1jYZG5u1dit11k5NkLIAc/kOhLKHHzPHVBIJn+wMq20xguLiY4sMti6EZxob8YN9ezEcHsX6shKkiTGw1oSA+HBuhA+87A+P4O5jR3H9Pf+F/zpxHD28H88YjRgPbwswxiMxjcoajzEmf0XWmJg3ZcxHzf3W2+vr8W+8mVTyNSXFsgqamt+fQF8UZTJ48YL3ifLXSrduewIfeOxh7OnoFFMTWzOi5wudEb40zw6NDUswNit5a7uGiEnPZQu0wpc0j54n4+7no6CZ+/kkjv2Sg/fz+WUUquB9fqbOa8MXhK8R729pfoHxvObzWWWywzuHh3CsqwvHu7txuKsTjf2+hxcLvuBZsbN51pnhA7sl2yDcrukX++AH9sOmWSdxYUY6VhcVY1lBPpYXFJnnpqXL+sZ/VkXxoCNHsWvq78dRsdFj3V042NmFIdqbsVFrl0wz8OTs26g5MUve2C7TtFmJrdSxaE7L3th9fMklfEbs/AyhqLDACh8FhWVG+CguVnyY94XQtPPLzPJchaSJMQI/NsZBw5C8NSSWGdHzjcm0YcwyCVwPy+y6zfZkeSN0fl9M2tYxz7Z+e9sP85n8pFmBrFNxmIANMKKNmbTEtDtjgxKs2MXS8aLHOlsvgStj3icZRhtJKnz8L/ZxPIxgMDAt/zEYUZFgPT0jNLZOBMi2k3/eSi1+hoZiYp4d/TwNxYTAkIGYNr7B2Di2fm5L8lbw7PYT9cWUmYX5XywydYoSFCUmmTcxhcyPaZMsNydnKaOtxkTRt9Nxy0mwmGJWzG2SUvgs44eBvqCYIFnGVvhsuT/EHavzyxliCiM7nXlrGBy6WrEzZczTWOLKTMzAVch/FDBi1i0YQfMFLiiAJh/XFwYSHysKoX3FYmtzDEG7TGCnJm9t1V+eeZPxSAZvjzgkfETyMaFjlrEEKzrEpP0yiqWJfZhkndn5fkyjMfN2Epsk0xIbw2KZzfO/QBxbl5+muBHreRIKsekDM4wlb/rMvMC0qTQbYMl4TL2SlFg7mgzbhtpF+7C2ypdqmNtXbH3Qy7NBytkmiClmxdwnuYXP/Bd/8EveiItfboSEaQlGWKTOr/I8LSb8+hjc+czTEoKBRRQ6qbOTw7Fy/jcBpg82HRQ4f/u2jzYYbF6SdtWmbpLtKMlNcNfH7E1ik6Rd+umYXQYCT9hEkl4Z88wEkPK4kjlLUgsfMR8qJhaWOEExIhKXN8LIvERBbN5agIlpKAxMWgOyZX65aSN1FDO7EpO322FgoR+bPNsK8X2JtSV+IpZXnMbaWhBjkrQ/Bib9enOSDpTbNibp27FFyv2apCDphY+cdZXXYkUoKCR2mEmCYjRuBTQKP2+Mx0uebUDSxsTMBwyJ27Xllvi+MCax2Kb9YMuJSQfWpbhLvBkYOzMJ+Rdvq36GUSI7tUid3zJpcEL4yMTix0IRHVsXLygma8uCu98vixmPjf3/TExD88uDsCiwmRjj+iL/BduM6wvTwfVSNOO3E1xYSW4S2Jgtsw++Ddph0GZjxRPZavKJHnFG+Ij5gEFhC2JFx6ZpBDGxSUDMGmzCX8YSPzHswy/bwu85IbYviepNkV8+weKKw1jbtTBp87QXW2XKJCTy8HyCtppsWOGb+NMnEWZXc2eaQCsIKIcp41mPgaLlt+OVr0Qhth6vqWdAweUTwPYBzBnHlMUpmFmvrMdcbWPgOlkWDH4ZJ6XH9UeD08H+PpxpG1ubsnZi7CpQFw/LJ6pLMuRbcAdvl/Ij251rhYd5f6fHBMwvmyjYdjFDYiBBUWWYZMjAZWNM1JcEeWvYzBsB1OB8MPYQZxvGvmw63qbJeFsN1iQ7/Gacwu7YmAc4EdZwJgoTmYhdp8Te38SwzuuHSZiys0mwbQ0aZhImskLf9swIZKI2SQq/Fefwhpnc5/Jndr6c+eKHwNPGXzZgQF48ffyl/L6w5OX2RVEmI4GtegbnHE4KXzzeI58kyNnRGERMgCbHa+svO50FpoExRdMPry9jUAh5ESYYVBwVy+T2cS5sdS6jwjcBngBNHl4NxrZHIUyNBc7ZWHHUoMEb1o7ZhxfG7EMZjwrfHEVNWQlCe1CbmD4qfIqiOIcKn6IozqHCpyiKc6jwKYriHCp8iqI4hwqfoijOocKnKIpzqPApiuIcKnyKk0QR8YP+7M9FVPhcISIHeXenCWDcJWF4yK985VBA7N+cQD4/Otrlewkj2tMt30cHooMDfqWS7KjwOUI0PAocOwScOILoqWNArQSK4KwRARrPSKjz869zKHqtzUBbC3DyKFBX630/ihOo8DmF7O75CxHacJEJKJsnXt8Aom1NXggPib82imh7M6L9PYi2NkrZsHiJ7Yg213sxy6PSZkDilgZEO1oQjYioDvR7Qtrfh2hvl789EdzBfkQ728SrEo+K7UcGZRviZdnlZVt84VI0KmVcf6uU9XV5bRizTbcsOyzrYb+47VFZB7fLvjLd2eq17xfPLdgnenNMs88t0v/IiNe2pREYHfE6WFYOrNsArFwFjAxLX3To6wKp5eXlt/tpQ9uWzX5KSSpEBNDcBGRnAWnpcuDLQU5xOLDXO+B7ejzvp7gUOHxYhoJtAId+fOrHGfGGMmSZevHoWJaeId6RtAmLl9cu7fpkWdIpwse31aWnI5Rb4JXRszp90ltOhpRol3yB1B2V5Udl+1yez4gbESE6dULSIRFQEc7cPOnHQS/fIW2ysqVe1lNY6G2nVvpUVOStn8NW1rNPI7JOEVpwGJ+bCxwXz7ZT2vT1en2rp0cq22Oen6O0TD6HfDfHjgB5+Qjx8ytJS9nDj5mn1ajH5xoUiloRGIpMtwgRTWC5eDvLV3pCZsoE8Qaxap0nFhmZwLz5EotQ0ENqrAfyRYDoJVUtMl6eEcxMER/G8xZ467DwXQ/Vsv7FS0WQKLiyztU1wIIqWU++9KnDK6MgcRuLlpikge+SWFot7UQsKYL0LNtaZVsixBTAdknnSR37xHjVWmm/3BNY671VSn9q1nvizv5VS78Lir06MiCizO0slu0oTqDC5xrlImA1ImhrJFhhoKAwEFsm3lAoNQ0oEY+InlktvS0Ri2IJwTd68R0PVqSYmGioaLfBegrN4UNAU4Pn6bGspMQMw9Ernhi9LyuA9Nzo+bEdvT16iPRUy0WY6cnRw8sT79D0yTfnVPaJffGySBfhprCxjP01D3CylQI9QxHlEAVacQIVPgcJmXfzSuBwki805/CvQUJYxIWelYFthH4RIg6F+zmHJ0NQemcUnR7xtpoaPU8rU0TKvOVLluFwtlvaBKE31ywiV3/aEzQOuznHVixixzThulnGYTAFanhQhqPiSVJ4CcsqKjxhZL/peQ5Jv9jPHBGuMmnXJULYINs4Kd4sPUn2h/iRGQ5zGMx+dMn2rPY1St9OHfczigvoHJ8z0NuRSAQhlJElWiBqQBHKFxGh15Qu3l3VYk/EKBRSHqKn1NbszQnSG+O8IIeXHN5SRIbEG6PoVEpdmiyfKe2jImSy3lBWjtmqGQb3yhAzV/KZWd42siXNvtCTLJGhJ9fF9XB9hF4ph9f09kYkyDA7lFfk9TFVOldSLp9B1pEuYkvxzM5FiMPsLFk/RZrCWCHDW3qsFD/Jh9JkfTl+nyjSnNvLlmXYF/NdpCOUI2KpJDV2js+JF4orL58ovaP2Fk+0KEQiVKFKEb6YGzU5UQonb3NZvdYTH0V5DXHqheLKyydUWQWsXCue2lKJa8S7m77okVCReGRcLlW8RkV5naDCp0wOhwXi7YVkSBgbIs8EGW6a5eyFB0V5HaDWqCiKc6jwKYriHCp8iqI4hwqfoijOocKnKIpzqPApiuIcKnyKojiHCp+iKM6hwqcoinOo8CmK4hwqfIqiOIcKn6IozqHCpyiKc6jwKYriHCp8iqI4hwqfoijOocKnKIpzqPApiuIcKnyKojiHCp+iKM6hwqcoinOo8CmK4hwqfIqiOIcKn6IozqHCpyiKc6jwKYriHCp8iqI4hwqfoijOocKnKIpzqPApiuIcKnyKojiHCp+iKM6hwqcoinOo8CmK4hwqfIqiOIcKn6IozqHCpyiKc6jwKYriHCp8iqI4hwqfoijOocKnKIpzqPApiuIcKnyKojiHCp+iKM6hwqcoinOo8CmK4hwqfIqiOIcKn6IozqHCpyiKc6jwKYriHCp8iqI4hwqfoijOocKnKIpzqPApiuIc44QvFAr5KUVRlOTDalyKip2iKK6hQ11FUZwjtG7duqifVhRFcQL1+BRFcQ4VPkVRnEOFT1EUxwD+PxHyXT8ZtFibAAAAAElFTkSuQmCC;" parent="1" vertex="1">
          <mxGeometry x="240" y="90" width="427.31" height="430" as="geometry" />
        </mxCell>
        <mxCell id="txPjbdsSIhJnOO-hSXGf-5" value="&lt;font style=&quot;font-size: 15px;&quot;&gt;&lt;b&gt;User can login with his/her Google Account&lt;/b&gt;&lt;/font&gt;" style="rounded=0;whiteSpace=wrap;html=1;" parent="1" vertex="1">
          <mxGeometry x="240" y="530" width="430" height="60" as="geometry" />
        </mxCell>
      </root>
    </mxGraphModel>
  </diagram>
  <diagram id="2-dGivT7BBwJXwDSt7-N" name="New User/ Sign Up Page- Temp">
    <mxGraphModel dx="903" dy="561" grid="1" gridSize="10" guides="1" tooltips="1" connect="1" arrows="1" fold="1" page="1" pageScale="1" pageWidth="850" pageHeight="1100" math="0" shadow="0">
      <root>
        <mxCell id="0" />
        <mxCell id="1" parent="0" />
        <mxCell id="uFY2H_IP-rsLz3hws7gN-1" value="" style="whiteSpace=wrap;html=1;aspect=fixed;" parent="1" vertex="1">
          <mxGeometry y="70" width="450" height="450" as="geometry" />
        </mxCell>
        <mxCell id="uFY2H_IP-rsLz3hws7gN-2" value="&lt;font style=&quot;font-size: 15px;&quot;&gt;&lt;b&gt;New User - Sign Up Form&lt;/b&gt;&lt;/font&gt;" style="rounded=1;whiteSpace=wrap;html=1;" parent="1" vertex="1">
          <mxGeometry x="10" width="480" height="60" as="geometry" />
        </mxCell>
        <mxCell id="uFY2H_IP-rsLz3hws7gN-3" value="Work&amp;nbsp; Email" style="rounded=0;whiteSpace=wrap;html=1;" parent="1" vertex="1">
          <mxGeometry x="10" y="160" width="120" height="30" as="geometry" />
        </mxCell>
        <mxCell id="uFY2H_IP-rsLz3hws7gN-4" value="Name" style="rounded=0;whiteSpace=wrap;html=1;" parent="1" vertex="1">
          <mxGeometry x="10" y="100" width="120" height="30" as="geometry" />
        </mxCell>
        <mxCell id="uFY2H_IP-rsLz3hws7gN-5" value="Title" style="rounded=0;whiteSpace=wrap;html=1;" parent="1" vertex="1">
          <mxGeometry x="10" y="210" width="120" height="30" as="geometry" />
        </mxCell>
        <mxCell id="uFY2H_IP-rsLz3hws7gN-6" value="Department" style="rounded=0;whiteSpace=wrap;html=1;" parent="1" vertex="1">
          <mxGeometry x="10" y="270" width="120" height="30" as="geometry" />
        </mxCell>
        <mxCell id="uFY2H_IP-rsLz3hws7gN-7" value="Designation Date" style="rounded=0;whiteSpace=wrap;html=1;" parent="1" vertex="1">
          <mxGeometry x="10" y="330" width="120" height="30" as="geometry" />
        </mxCell>
        <mxCell id="uFY2H_IP-rsLz3hws7gN-13" value="" style="edgeStyle=orthogonalEdgeStyle;rounded=0;orthogonalLoop=1;jettySize=auto;html=1;" parent="1" source="uFY2H_IP-rsLz3hws7gN-8" target="uFY2H_IP-rsLz3hws7gN-12" edge="1">
          <mxGeometry relative="1" as="geometry" />
        </mxCell>
        <mxCell id="uFY2H_IP-rsLz3hws7gN-8" value="Total Number of Years" style="rounded=0;whiteSpace=wrap;html=1;" parent="1" vertex="1">
          <mxGeometry x="10" y="390" width="120" height="30" as="geometry" />
        </mxCell>
        <mxCell id="uFY2H_IP-rsLz3hws7gN-12" value="to be calculated Auto" style="whiteSpace=wrap;html=1;rounded=0;" parent="1" vertex="1">
          <mxGeometry x="280" y="392.5" width="150" height="25" as="geometry" />
        </mxCell>
        <mxCell id="uFY2H_IP-rsLz3hws7gN-17" value="" style="edgeStyle=orthogonalEdgeStyle;rounded=0;orthogonalLoop=1;jettySize=auto;html=1;" parent="1" source="uFY2H_IP-rsLz3hws7gN-14" target="uFY2H_IP-rsLz3hws7gN-16" edge="1">
          <mxGeometry relative="1" as="geometry" />
        </mxCell>
        <mxCell id="uFY2H_IP-rsLz3hws7gN-14" value="Total Balance of V-Balance" style="rounded=0;whiteSpace=wrap;html=1;" parent="1" vertex="1">
          <mxGeometry x="10" y="450" width="150" height="40" as="geometry" />
        </mxCell>
        <mxCell id="uFY2H_IP-rsLz3hws7gN-16" value="to be calc based on T-#of Yrs" style="whiteSpace=wrap;html=1;rounded=0;" parent="1" vertex="1">
          <mxGeometry x="280" y="455" width="160" height="30" as="geometry" />
        </mxCell>
        <mxCell id="uFY2H_IP-rsLz3hws7gN-18" value="&lt;b style=&quot;font-size: 15px;&quot;&gt;Thank you - you will receive an email of confirmation of your account on the resisted email.&amp;nbsp;&lt;/b&gt;" style="whiteSpace=wrap;html=1;aspect=fixed;" parent="1" vertex="1">
          <mxGeometry x="510" y="90" width="425" height="425" as="geometry" />
        </mxCell>
        <mxCell id="uFY2H_IP-rsLz3hws7gN-19" value="&lt;font style=&quot;font-size: 16px;&quot;&gt;&lt;b&gt;&lt;i&gt;Thank You!&lt;/i&gt;&lt;/b&gt;&lt;/font&gt;" style="rounded=0;whiteSpace=wrap;html=1;" parent="1" vertex="1">
          <mxGeometry x="620" y="90" width="170" height="60" as="geometry" />
        </mxCell>
      </root>
    </mxGraphModel>
  </diagram>
  <diagram id="O547Ay-Et3hAAvju2r4_" name="Mapping Page- Usr Cmpt">
    <mxGraphModel grid="1" page="1" gridSize="10" guides="1" tooltips="1" connect="1" arrows="1" fold="1" pageScale="1" pageWidth="850" pageHeight="1100" math="0" shadow="0">
      <root>
        <mxCell id="0" />
        <mxCell id="1" parent="0" />
        <mxCell id="IB_Bb-oQ5DMPZtB9F_or-1" value="Vacation Credit Balance&amp;nbsp; &amp;nbsp; &amp;nbsp; &amp;nbsp;Vacation Left Balance&amp;nbsp; &amp;nbsp; &amp;nbsp; &amp;nbsp;New Vacation Request&lt;br&gt;&lt;br&gt;Request has 3 cases:&lt;br&gt;1- Pending&amp;nbsp;&lt;br&gt;2- Approved&lt;br&gt;3- Rejected&lt;br&gt;&lt;br&gt;- any request should be reflected to the employee D-Mgr&lt;br&gt;-Access Type (Admin, Manager, User)&lt;br&gt;* Admin - Check it all&amp;nbsp;&lt;br&gt;* Manager - Check his team Balance&amp;nbsp;&lt;br&gt;* User - Individual Usage - can look only to his/ her vacation balance&lt;br&gt;&lt;br&gt;once a leave is submitted --&amp;gt; Request to be sent to the direct manager then --&amp;gt; a response to be sent back to the employee with the request case&lt;br&gt;in case of Approval --&amp;gt; pop up your request has been approved --&amp;gt; reflected vacation balance update for Mgr and employee&amp;nbsp;&lt;br&gt;in case of Rejection --&amp;gt; pop up your request has been Rejected&amp;nbsp;&lt;br&gt;in case of Pending --&amp;gt; pop up your request is still pending&amp;nbsp;&lt;br&gt;&lt;br&gt;&lt;br&gt;" style="rounded=0;whiteSpace=wrap;html=1;align=left;" vertex="1" parent="1">
          <mxGeometry x="-80" y="20" width="730" height="540" as="geometry" />
        </mxCell>
        <mxCell id="IB_Bb-oQ5DMPZtB9F_or-2" value="User&amp;nbsp; Component" style="ellipse;whiteSpace=wrap;html=1;" vertex="1" parent="1">
          <mxGeometry x="-50" y="40" width="120" height="80" as="geometry" />
        </mxCell>
      </root>
    </mxGraphModel>
  </diagram>
  <diagram id="DryNfTJH5yol84U4INCe" name="Mapping Page- Manager Cmpt">
    <mxGraphModel grid="1" page="1" gridSize="10" guides="1" tooltips="1" connect="1" arrows="1" fold="1" pageScale="1" pageWidth="850" pageHeight="1100" math="0" shadow="0">
      <root>
        <mxCell id="0" />
        <mxCell id="1" parent="0" />
        <mxCell id="2l3jaUu9DMg0inn-YD8J-1" value="Manager Page - Should contain:&lt;br&gt;His/ her vacation balance --&amp;nbsp;&lt;br&gt;subordinate &#39;s vacation balance left and taken.&lt;br&gt;- New vacation request&amp;nbsp;&lt;br&gt;&lt;br&gt;once a leave is submitted --&amp;gt; Request to be sent to the direct manager then --&amp;gt; a response to be sent back to the employee with the request case&lt;br style=&quot;border-color: var(--border-color);&quot;&gt;in case of Approval --&amp;gt; pop up your request has been approved --&amp;gt; reflected vacation balance update for Mgr and employee&amp;nbsp;&lt;br style=&quot;border-color: var(--border-color);&quot;&gt;in case of Rejection --&amp;gt; pop up your request has been Rejected&amp;nbsp;&lt;br style=&quot;border-color: var(--border-color);&quot;&gt;in case of Pending --&amp;gt; pop up your request is still pending&amp;nbsp;&lt;br style=&quot;border-color: var(--border-color);&quot;&gt;&amp;nbsp;" style="whiteSpace=wrap;html=1;aspect=fixed;align=left;" vertex="1" parent="1">
          <mxGeometry width="700" height="700" as="geometry" />
        </mxCell>
        <mxCell id="2l3jaUu9DMg0inn-YD8J-2" value="Manager Component" style="ellipse;whiteSpace=wrap;html=1;" vertex="1" parent="1">
          <mxGeometry x="40" y="30" width="160" height="80" as="geometry" />
        </mxCell>
      </root>
    </mxGraphModel>
  </diagram>
  <diagram id="IhrgcN9Y_9FZkYueswq6" name="Mapping Page- Admin/HR Cmpt">
    <mxGraphModel grid="1" page="1" gridSize="10" guides="1" tooltips="1" connect="1" arrows="1" fold="1" pageScale="1" pageWidth="850" pageHeight="1100" math="0" shadow="0">
      <root>
        <mxCell id="0" />
        <mxCell id="1" parent="0" />
        <mxCell id="Yi02p0mYPdzBU6_8GYt1-2" value="" style="whiteSpace=wrap;html=1;aspect=fixed;" vertex="1" parent="1">
          <mxGeometry x="-1680" y="-350" width="1760" height="1760" as="geometry" />
        </mxCell>
        <mxCell id="8L5Nip5gUoG3lnyL17FX-1" value="" style="whiteSpace=wrap;html=1;aspect=fixed;" vertex="1" parent="1">
          <mxGeometry x="-1600" y="-290" width="1620" height="1620" as="geometry" />
        </mxCell>
        <mxCell id="8L5Nip5gUoG3lnyL17FX-4" value="&lt;h1 style=&quot;font-size: 30px;&quot;&gt;&lt;span style=&quot;white-space: pre;&quot;&gt;&#x9;&lt;/span&gt;&lt;span style=&quot;white-space: pre;&quot;&gt;&#x9;&lt;/span&gt;&lt;span style=&quot;white-space: pre;&quot;&gt;&#x9;&lt;/span&gt;&lt;span style=&quot;white-space: pre;&quot;&gt;&#x9;&lt;/span&gt;&lt;/h1&gt;&lt;h1 style=&quot;font-size: 30px;&quot;&gt;&lt;br&gt;&lt;/h1&gt;&lt;h1 style=&quot;font-size: 30px;&quot;&gt;&lt;br&gt;&lt;/h1&gt;&lt;h1 style=&quot;font-size: 30px;&quot;&gt;&lt;br&gt;&lt;/h1&gt;&lt;h1 style=&quot;&quot;&gt;&lt;span style=&quot;font-size: 28px;&quot;&gt;Vacation Credit Balance&amp;nbsp; &amp;nbsp; &amp;nbsp; &amp;nbsp;Vacation Left Balance&amp;nbsp; &amp;nbsp; &amp;nbsp; &amp;nbsp;New Vacation Request&lt;/span&gt;&lt;br style=&quot;border-color: var(--border-color); font-size: 12px; font-weight: 400;&quot;&gt;&lt;br style=&quot;border-color: var(--border-color); font-size: 12px; font-weight: 400;&quot;&gt;&lt;span style=&quot;font-size: 28px; font-weight: 400;&quot;&gt;Request has 3 cases:&lt;/span&gt;&lt;br style=&quot;border-color: var(--border-color); font-weight: 400;&quot;&gt;&lt;span style=&quot;font-size: 28px; font-weight: 400;&quot;&gt;1- Pending&amp;nbsp;&lt;/span&gt;&lt;br style=&quot;border-color: var(--border-color); font-weight: 400;&quot;&gt;&lt;span style=&quot;font-size: 28px; font-weight: 400;&quot;&gt;2- Approved&lt;/span&gt;&lt;br style=&quot;border-color: var(--border-color); font-weight: 400;&quot;&gt;&lt;span style=&quot;font-size: 28px; font-weight: 400;&quot;&gt;3- Rejected&lt;/span&gt;&lt;br style=&quot;border-color: var(--border-color); font-weight: 400;&quot;&gt;&lt;br style=&quot;border-color: var(--border-color); font-weight: 400;&quot;&gt;&lt;span style=&quot;font-size: 28px; font-weight: 400;&quot;&gt;- any request should be reflected to the employee D-Mgr&lt;/span&gt;&lt;br style=&quot;border-color: var(--border-color); font-weight: 400;&quot;&gt;&lt;span style=&quot;font-size: 28px; font-weight: 400;&quot;&gt;-Access Type (Admin, Manager, User)&lt;/span&gt;&lt;br style=&quot;border-color: var(--border-color); font-weight: 400;&quot;&gt;&lt;span style=&quot;font-size: 28px; font-weight: 400;&quot;&gt;* Admin - Check it all&amp;nbsp;&lt;/span&gt;&lt;br style=&quot;border-color: var(--border-color); font-weight: 400;&quot;&gt;&lt;span style=&quot;font-size: 28px; font-weight: 400;&quot;&gt;* Manager - Check his team Balance&amp;nbsp;&lt;/span&gt;&lt;br style=&quot;border-color: var(--border-color); font-weight: 400;&quot;&gt;&lt;span style=&quot;font-size: 28px; font-weight: 400;&quot;&gt;* User - Individual Usage - can look only to his/ her vacation balance&lt;/span&gt;&lt;br style=&quot;border-color: var(--border-color); font-weight: 400;&quot;&gt;&lt;br style=&quot;border-color: var(--border-color); font-weight: 400;&quot;&gt;&lt;span style=&quot;font-size: 28px; font-weight: 400;&quot;&gt;once a leave is submitted --&amp;gt; Request to be sent to the direct manager then --&amp;gt; request to be sent to the&amp;nbsp; to Admin --&amp;gt; a response to be sent back to the employee with the request case&lt;/span&gt;&lt;br style=&quot;border-color: var(--border-color); font-weight: 400;&quot;&gt;&lt;span style=&quot;font-size: 28px; font-weight: 400;&quot;&gt;in case of Approval --&amp;gt; pop up your request has been approved --&amp;gt; reflected vacation balance update for Admin, Mgr.&amp;nbsp;and employee.&amp;nbsp;&lt;/span&gt;&lt;br style=&quot;border-color: var(--border-color); font-weight: 400;&quot;&gt;&lt;span style=&quot;font-size: 28px; font-weight: 400;&quot;&gt;in case of Rejection --&amp;gt; pop up your request has been Rejected&amp;nbsp;&lt;/span&gt;&lt;br style=&quot;border-color: var(--border-color); font-weight: 400;&quot;&gt;&lt;span style=&quot;font-size: 28px; font-weight: 400;&quot;&gt;in case of Pending --&amp;gt; pop up your request is still pending&amp;nbsp;&lt;/span&gt;&lt;br style=&quot;border-color: var(--border-color); font-weight: 400;&quot;&gt;&lt;br style=&quot;border-color: var(--border-color); font-weight: 400;&quot;&gt;&lt;/h1&gt;" style="text;html=1;strokeColor=none;fillColor=none;spacing=5;spacingTop=-20;whiteSpace=wrap;overflow=hidden;rounded=0;" vertex="1" parent="1">
          <mxGeometry x="-1600" y="-210" width="1290" height="1210" as="geometry" />
        </mxCell>
        <mxCell id="8L5Nip5gUoG3lnyL17FX-5" value="&lt;font style=&quot;font-size: 20px;&quot;&gt;Admin Component&lt;/font&gt;" style="ellipse;whiteSpace=wrap;html=1;" vertex="1" parent="1">
          <mxGeometry x="-1560" y="-240" width="300" height="220" as="geometry" />
        </mxCell>
      </root>
    </mxGraphModel>
  </diagram>
  <diagram id="G39ZtolPjAmyf6uQApjt" name="Calculation of the Vacation ">
    <mxGraphModel grid="1" page="1" gridSize="10" guides="1" tooltips="1" connect="1" arrows="1" fold="1" pageScale="1" pageWidth="850" pageHeight="1100" math="0" shadow="0">
      <root>
        <mxCell id="0" />
        <mxCell id="1" parent="0" />
        <mxCell id="TPi_LHuaFfGji4m6bypA-1" value="calculation of the vacation" style="rounded=1;whiteSpace=wrap;html=1;" vertex="1" parent="1">
          <mxGeometry y="40" width="300" height="60" as="geometry" />
        </mxCell>
      </root>
    </mxGraphModel>
  </diagram>
</mxfile>
